<mxfile host="app.diagrams.net" agent="Mozilla/5.0 (Windows NT 10.0; Win64; x64) AppleWebKit/537.36 (KHTML, like Gecko) Chrome/133.0.0.0 Safari/537.36" version="26.0.15">
  <diagram name="Page-1" id="2YBvvXClWsGukQMizWep">
    <mxGraphModel dx="1195" dy="615" grid="1" gridSize="10" guides="1" tooltips="1" connect="1" arrows="1" fold="1" page="1" pageScale="1" pageWidth="850" pageHeight="1100" math="0" shadow="0">
      <root>
        <mxCell id="0" />
        <mxCell id="1" parent="0" />
        <mxCell id="aM9ryv3xv72pqoxQDRHE-1" value="Usuario" style="shape=umlLifeline;perimeter=lifelinePerimeter;whiteSpace=wrap;html=1;container=0;dropTarget=0;collapsible=0;recursiveResize=0;outlineConnect=0;portConstraint=eastwest;newEdgeStyle={&quot;edgeStyle&quot;:&quot;elbowEdgeStyle&quot;,&quot;elbow&quot;:&quot;vertical&quot;,&quot;curved&quot;:0,&quot;rounded&quot;:0};" parent="1" vertex="1">
          <mxGeometry x="60" y="40" width="100" height="600" as="geometry" />
        </mxCell>
        <mxCell id="aM9ryv3xv72pqoxQDRHE-5" value="CentralizacionAPIs" style="shape=umlLifeline;perimeter=lifelinePerimeter;whiteSpace=wrap;html=1;container=0;dropTarget=0;collapsible=0;recursiveResize=0;outlineConnect=0;portConstraint=eastwest;newEdgeStyle={&quot;edgeStyle&quot;:&quot;elbowEdgeStyle&quot;,&quot;elbow&quot;:&quot;vertical&quot;,&quot;curved&quot;:0,&quot;rounded&quot;:0};" parent="1" vertex="1">
          <mxGeometry x="280" y="40" width="120" height="600" as="geometry" />
        </mxCell>
        <mxCell id="aM9ryv3xv72pqoxQDRHE-7" value="Ingresa datos para Iniciar sesion" style="html=1;verticalAlign=bottom;endArrow=block;edgeStyle=elbowEdgeStyle;elbow=vertical;curved=0;rounded=0;" parent="1" source="aM9ryv3xv72pqoxQDRHE-1" target="aM9ryv3xv72pqoxQDRHE-5" edge="1">
          <mxGeometry relative="1" as="geometry">
            <mxPoint x="195" y="130" as="sourcePoint" />
            <Array as="points">
              <mxPoint x="180" y="120" />
            </Array>
            <mxPoint as="offset" />
          </mxGeometry>
        </mxCell>
        <mxCell id="1-ScxrHDfQaOla46Kc_9-1" value="Base de Datos" style="shape=umlLifeline;perimeter=lifelinePerimeter;whiteSpace=wrap;html=1;container=0;dropTarget=0;collapsible=0;recursiveResize=0;outlineConnect=0;portConstraint=eastwest;newEdgeStyle={&quot;edgeStyle&quot;:&quot;elbowEdgeStyle&quot;,&quot;elbow&quot;:&quot;vertical&quot;,&quot;curved&quot;:0,&quot;rounded&quot;:0};" parent="1" vertex="1">
          <mxGeometry x="520" y="40" width="100" height="600" as="geometry" />
        </mxCell>
        <mxCell id="1-ScxrHDfQaOla46Kc_9-4" value="" style="endArrow=classic;html=1;rounded=0;" parent="1" edge="1">
          <mxGeometry width="50" height="50" relative="1" as="geometry">
            <mxPoint x="339.66666666666674" y="140" as="sourcePoint" />
            <mxPoint x="569.5000000000002" y="140" as="targetPoint" />
            <Array as="points">
              <mxPoint x="450" y="140" />
            </Array>
          </mxGeometry>
        </mxCell>
        <mxCell id="1-ScxrHDfQaOla46Kc_9-6" value="Consulta Información del Usuario" style="edgeLabel;html=1;align=center;verticalAlign=middle;resizable=0;points=[];" parent="1-ScxrHDfQaOla46Kc_9-4" vertex="1" connectable="0">
          <mxGeometry x="0.0471" y="3" relative="1" as="geometry">
            <mxPoint x="20" y="-7" as="offset" />
          </mxGeometry>
        </mxCell>
        <mxCell id="1-ScxrHDfQaOla46Kc_9-7" value="" style="endArrow=classic;html=1;rounded=0;dashed=1;" parent="1" edge="1">
          <mxGeometry width="50" height="50" relative="1" as="geometry">
            <mxPoint x="569.5000000000002" y="180" as="sourcePoint" />
            <mxPoint x="339.66666666666674" y="180" as="targetPoint" />
            <Array as="points">
              <mxPoint x="450" y="180" />
            </Array>
          </mxGeometry>
        </mxCell>
        <mxCell id="1-ScxrHDfQaOla46Kc_9-8" value="Retorna Información del Usuario" style="edgeLabel;html=1;align=center;verticalAlign=middle;resizable=0;points=[];" parent="1-ScxrHDfQaOla46Kc_9-7" vertex="1" connectable="0">
          <mxGeometry x="0.2357" y="1" relative="1" as="geometry">
            <mxPoint x="62" y="-11" as="offset" />
          </mxGeometry>
        </mxCell>
        <mxCell id="1-ScxrHDfQaOla46Kc_9-9" value="" style="endArrow=classic;html=1;rounded=0;dashed=1;" parent="1" edge="1">
          <mxGeometry width="50" height="50" relative="1" as="geometry">
            <mxPoint x="339.5000000000002" y="200" as="sourcePoint" />
            <mxPoint x="109.66666666666674" y="200" as="targetPoint" />
            <Array as="points">
              <mxPoint x="220" y="200" />
            </Array>
          </mxGeometry>
        </mxCell>
        <mxCell id="1-ScxrHDfQaOla46Kc_9-11" value="Si es Interno Autenticación MFA" style="edgeLabel;html=1;align=center;verticalAlign=middle;resizable=0;points=[];" parent="1-ScxrHDfQaOla46Kc_9-9" vertex="1" connectable="0">
          <mxGeometry x="-0.0544" y="-1" relative="1" as="geometry">
            <mxPoint y="-9" as="offset" />
          </mxGeometry>
        </mxCell>
        <mxCell id="1-ScxrHDfQaOla46Kc_9-15" value="" style="endArrow=classic;html=1;rounded=0;" parent="1" edge="1">
          <mxGeometry width="50" height="50" relative="1" as="geometry">
            <mxPoint x="569.5000000000002" y="240" as="sourcePoint" />
            <mxPoint x="339.66666666666674" y="240" as="targetPoint" />
          </mxGeometry>
        </mxCell>
        <mxCell id="1-ScxrHDfQaOla46Kc_9-16" value="Carga la lista de APIs y&amp;nbsp;&lt;span style=&quot;background-color: light-dark(#ffffff, var(--ge-dark-color, #121212)); color: light-dark(rgb(0, 0, 0), rgb(255, 255, 255));&quot;&gt;sus módulos&lt;/span&gt;" style="edgeLabel;html=1;align=center;verticalAlign=middle;resizable=0;points=[];" parent="1-ScxrHDfQaOla46Kc_9-15" vertex="1" connectable="0">
          <mxGeometry x="0.1704" y="-3" relative="1" as="geometry">
            <mxPoint x="45" y="-7" as="offset" />
          </mxGeometry>
        </mxCell>
        <mxCell id="1-ScxrHDfQaOla46Kc_9-17" value="" style="endArrow=classic;html=1;rounded=0;" parent="1" edge="1">
          <mxGeometry width="50" height="50" relative="1" as="geometry">
            <mxPoint x="109.66666666666674" y="270" as="sourcePoint" />
            <mxPoint x="339.5000000000002" y="270" as="targetPoint" />
          </mxGeometry>
        </mxCell>
        <mxCell id="1-ScxrHDfQaOla46Kc_9-18" value="Visualiza las APIs de acuerdo a los Permisos" style="edgeLabel;html=1;align=center;verticalAlign=middle;resizable=0;points=[];" parent="1-ScxrHDfQaOla46Kc_9-17" vertex="1" connectable="0">
          <mxGeometry x="-0.0326" y="2" relative="1" as="geometry">
            <mxPoint y="-8" as="offset" />
          </mxGeometry>
        </mxCell>
        <mxCell id="1-ScxrHDfQaOla46Kc_9-19" value="" style="endArrow=classic;html=1;rounded=0;" parent="1" edge="1">
          <mxGeometry width="50" height="50" relative="1" as="geometry">
            <mxPoint x="109.66666666666674" y="320" as="sourcePoint" />
            <mxPoint x="339.5000000000002" y="320" as="targetPoint" />
          </mxGeometry>
        </mxCell>
        <mxCell id="1-ScxrHDfQaOla46Kc_9-20" value="Realiza las acciones permitidas&amp;nbsp;&lt;div&gt;en los Endpoints&lt;/div&gt;" style="edgeLabel;html=1;align=center;verticalAlign=middle;resizable=0;points=[];" parent="1-ScxrHDfQaOla46Kc_9-19" vertex="1" connectable="0">
          <mxGeometry x="-0.0326" y="2" relative="1" as="geometry">
            <mxPoint x="-30" y="-18" as="offset" />
          </mxGeometry>
        </mxCell>
        <mxCell id="1-ScxrHDfQaOla46Kc_9-22" value="" style="endArrow=classic;html=1;rounded=0;" parent="1" edge="1">
          <mxGeometry width="50" height="50" relative="1" as="geometry">
            <mxPoint x="109.99666666666674" y="400" as="sourcePoint" />
            <mxPoint x="339.8300000000002" y="400" as="targetPoint" />
          </mxGeometry>
        </mxCell>
        <mxCell id="1-ScxrHDfQaOla46Kc_9-23" value="Realiza las acciones del CRUD de Roles" style="edgeLabel;html=1;align=center;verticalAlign=middle;resizable=0;points=[];" parent="1-ScxrHDfQaOla46Kc_9-22" vertex="1" connectable="0">
          <mxGeometry x="-0.0326" y="2" relative="1" as="geometry">
            <mxPoint x="-11" y="-8" as="offset" />
          </mxGeometry>
        </mxCell>
        <mxCell id="1-ScxrHDfQaOla46Kc_9-24" value="" style="endArrow=classic;html=1;rounded=0;" parent="1" edge="1">
          <mxGeometry width="50" height="50" relative="1" as="geometry">
            <mxPoint x="339.66666666666674" y="440" as="sourcePoint" />
            <mxPoint x="569.5000000000002" y="440" as="targetPoint" />
            <Array as="points">
              <mxPoint x="450.33" y="440" />
            </Array>
          </mxGeometry>
        </mxCell>
        <mxCell id="1-ScxrHDfQaOla46Kc_9-25" value="Consulta Información del CRUD de Roles" style="edgeLabel;html=1;align=center;verticalAlign=middle;resizable=0;points=[];" parent="1-ScxrHDfQaOla46Kc_9-24" vertex="1" connectable="0">
          <mxGeometry x="0.0471" y="3" relative="1" as="geometry">
            <mxPoint y="-7" as="offset" />
          </mxGeometry>
        </mxCell>
        <mxCell id="1-ScxrHDfQaOla46Kc_9-26" value="" style="endArrow=classic;html=1;rounded=0;dashed=1;" parent="1" edge="1">
          <mxGeometry width="50" height="50" relative="1" as="geometry">
            <mxPoint x="569.8300000000003" y="480" as="sourcePoint" />
            <mxPoint x="339.9966666666667" y="480" as="targetPoint" />
            <Array as="points">
              <mxPoint x="450.33" y="480" />
            </Array>
          </mxGeometry>
        </mxCell>
        <mxCell id="1-ScxrHDfQaOla46Kc_9-27" value="Retorna Información del CRUD de Roles" style="edgeLabel;html=1;align=center;verticalAlign=middle;resizable=0;points=[];" parent="1-ScxrHDfQaOla46Kc_9-26" vertex="1" connectable="0">
          <mxGeometry x="0.2357" y="1" relative="1" as="geometry">
            <mxPoint x="42" y="-11" as="offset" />
          </mxGeometry>
        </mxCell>
        <mxCell id="1-ScxrHDfQaOla46Kc_9-28" value="" style="endArrow=classic;html=1;rounded=0;dashed=1;" parent="1" edge="1">
          <mxGeometry width="50" height="50" relative="1" as="geometry">
            <mxPoint x="339.8300000000002" y="499.99999999999994" as="sourcePoint" />
            <mxPoint x="109.99666666666674" y="499.99999999999994" as="targetPoint" />
            <Array as="points">
              <mxPoint x="220.33" y="499.99999999999994" />
            </Array>
          </mxGeometry>
        </mxCell>
        <mxCell id="1-ScxrHDfQaOla46Kc_9-29" value="Visualiza la Información del CRUD de Roles" style="edgeLabel;html=1;align=center;verticalAlign=middle;resizable=0;points=[];" parent="1-ScxrHDfQaOla46Kc_9-28" vertex="1" connectable="0">
          <mxGeometry x="-0.0544" y="-1" relative="1" as="geometry">
            <mxPoint x="-11" y="-9" as="offset" />
          </mxGeometry>
        </mxCell>
        <mxCell id="1-ScxrHDfQaOla46Kc_9-30" value="" style="endArrow=classic;html=1;rounded=0;" parent="1" edge="1">
          <mxGeometry width="50" height="50" relative="1" as="geometry">
            <mxPoint x="109.99666666666674" y="559.17" as="sourcePoint" />
            <mxPoint x="339.8300000000002" y="559.17" as="targetPoint" />
          </mxGeometry>
        </mxCell>
        <mxCell id="1-ScxrHDfQaOla46Kc_9-31" value="Realiza las acciones del CRUD de Usuarios" style="edgeLabel;html=1;align=center;verticalAlign=middle;resizable=0;points=[];" parent="1-ScxrHDfQaOla46Kc_9-30" vertex="1" connectable="0">
          <mxGeometry x="-0.0326" y="2" relative="1" as="geometry">
            <mxPoint y="-8" as="offset" />
          </mxGeometry>
        </mxCell>
        <mxCell id="1-ScxrHDfQaOla46Kc_9-32" value="" style="endArrow=classic;html=1;rounded=0;" parent="1" edge="1">
          <mxGeometry width="50" height="50" relative="1" as="geometry">
            <mxPoint x="340" y="579.17" as="sourcePoint" />
            <mxPoint x="570" y="579.17" as="targetPoint" />
            <Array as="points">
              <mxPoint x="450.33" y="579.17" />
            </Array>
          </mxGeometry>
        </mxCell>
        <mxCell id="1-ScxrHDfQaOla46Kc_9-33" value="Consulta Información del CRUD de Usuarios" style="edgeLabel;html=1;align=center;verticalAlign=middle;resizable=0;points=[];" parent="1-ScxrHDfQaOla46Kc_9-32" vertex="1" connectable="0">
          <mxGeometry x="0.0471" y="3" relative="1" as="geometry">
            <mxPoint x="-10" y="-7" as="offset" />
          </mxGeometry>
        </mxCell>
        <mxCell id="1-ScxrHDfQaOla46Kc_9-34" value="" style="endArrow=classic;html=1;rounded=0;dashed=1;" parent="1" edge="1">
          <mxGeometry width="50" height="50" relative="1" as="geometry">
            <mxPoint x="569.8300000000003" y="619.17" as="sourcePoint" />
            <mxPoint x="339.9966666666667" y="619.17" as="targetPoint" />
            <Array as="points">
              <mxPoint x="450.33" y="619.17" />
            </Array>
          </mxGeometry>
        </mxCell>
        <mxCell id="1-ScxrHDfQaOla46Kc_9-35" value="Retorna Información del CRUD de Usuarios" style="edgeLabel;html=1;align=center;verticalAlign=middle;resizable=0;points=[];" parent="1-ScxrHDfQaOla46Kc_9-34" vertex="1" connectable="0">
          <mxGeometry x="0.2357" y="1" relative="1" as="geometry">
            <mxPoint x="32" y="-11" as="offset" />
          </mxGeometry>
        </mxCell>
        <mxCell id="1-ScxrHDfQaOla46Kc_9-37" value="" style="endArrow=classic;html=1;rounded=0;dashed=1;" parent="1" edge="1">
          <mxGeometry width="50" height="50" relative="1" as="geometry">
            <mxPoint x="339.8300000000002" y="630" as="sourcePoint" />
            <mxPoint x="109.99666666666674" y="630" as="targetPoint" />
            <Array as="points">
              <mxPoint x="220.33" y="630" />
            </Array>
          </mxGeometry>
        </mxCell>
        <mxCell id="1-ScxrHDfQaOla46Kc_9-38" value="Visualiza la Información del CRUD de Usuarios" style="edgeLabel;html=1;align=center;verticalAlign=middle;resizable=0;points=[];" parent="1-ScxrHDfQaOla46Kc_9-37" vertex="1" connectable="0">
          <mxGeometry x="-0.0544" y="-1" relative="1" as="geometry">
            <mxPoint x="-11" y="-9" as="offset" />
          </mxGeometry>
        </mxCell>
        <mxCell id="1-ScxrHDfQaOla46Kc_9-39" value="" style="endArrow=classic;html=1;rounded=0;dashed=1;" parent="1" edge="1">
          <mxGeometry width="50" height="50" relative="1" as="geometry">
            <mxPoint x="339.8300000000002" y="360" as="sourcePoint" />
            <mxPoint x="109.99666666666674" y="360" as="targetPoint" />
            <Array as="points">
              <mxPoint x="220.33" y="360" />
            </Array>
          </mxGeometry>
        </mxCell>
        <mxCell id="1-ScxrHDfQaOla46Kc_9-40" value="Retorna Información de los&amp;nbsp;&lt;span style=&quot;background-color: light-dark(#ffffff, var(--ge-dark-color, #121212)); color: light-dark(rgb(0, 0, 0), rgb(255, 255, 255));&quot;&gt;EndPoints&amp;nbsp;&lt;/span&gt;" style="edgeLabel;html=1;align=center;verticalAlign=middle;resizable=0;points=[];" parent="1-ScxrHDfQaOla46Kc_9-39" vertex="1" connectable="0">
          <mxGeometry x="-0.0544" y="-1" relative="1" as="geometry">
            <mxPoint x="-21" y="-9" as="offset" />
          </mxGeometry>
        </mxCell>
        <mxCell id="sU1jEntOXJiRWSgL5Oum-1" value="" style="endArrow=classic;html=1;rounded=0;" edge="1" parent="1">
          <mxGeometry width="50" height="50" relative="1" as="geometry">
            <mxPoint x="339.9966666666667" y="420" as="sourcePoint" />
            <mxPoint x="569.8300000000002" y="420" as="targetPoint" />
          </mxGeometry>
        </mxCell>
        <mxCell id="sU1jEntOXJiRWSgL5Oum-2" value="Realiza la accion de Auditoria de Rol" style="edgeLabel;html=1;align=center;verticalAlign=middle;resizable=0;points=[];" vertex="1" connectable="0" parent="sU1jEntOXJiRWSgL5Oum-1">
          <mxGeometry x="-0.0326" y="2" relative="1" as="geometry">
            <mxPoint x="19" y="-8" as="offset" />
          </mxGeometry>
        </mxCell>
        <mxCell id="sU1jEntOXJiRWSgL5Oum-5" value="" style="endArrow=classic;html=1;rounded=0;dashed=1;" edge="1" parent="1">
          <mxGeometry width="50" height="50" relative="1" as="geometry">
            <mxPoint x="339.8300000000002" y="520" as="sourcePoint" />
            <mxPoint x="109.99666666666674" y="520" as="targetPoint" />
            <Array as="points">
              <mxPoint x="220.33" y="520" />
            </Array>
          </mxGeometry>
        </mxCell>
        <mxCell id="sU1jEntOXJiRWSgL5Oum-6" value="Visualiza la Información de Auditoria Rol" style="edgeLabel;html=1;align=center;verticalAlign=middle;resizable=0;points=[];" vertex="1" connectable="0" parent="sU1jEntOXJiRWSgL5Oum-5">
          <mxGeometry x="-0.0544" y="-1" relative="1" as="geometry">
            <mxPoint x="-11" y="-9" as="offset" />
          </mxGeometry>
        </mxCell>
        <mxCell id="sU1jEntOXJiRWSgL5Oum-7" value="" style="endArrow=classic;html=1;rounded=0;" edge="1" parent="1">
          <mxGeometry width="50" height="50" relative="1" as="geometry">
            <mxPoint x="339.9966666666668" y="330" as="sourcePoint" />
            <mxPoint x="569.8300000000003" y="330" as="targetPoint" />
          </mxGeometry>
        </mxCell>
        <mxCell id="sU1jEntOXJiRWSgL5Oum-8" value="Realiza las acciones&amp;nbsp;&lt;span style=&quot;background-color: light-dark(#ffffff, var(--ge-dark-color, #121212)); color: light-dark(rgb(0, 0, 0), rgb(255, 255, 255));&quot;&gt;de los Endpoints&lt;/span&gt;&lt;div&gt;&lt;span style=&quot;background-color: light-dark(#ffffff, var(--ge-dark-color, #121212)); color: light-dark(rgb(0, 0, 0), rgb(255, 255, 255));&quot;&gt;&amp;nbsp;por un Servicio&lt;/span&gt;&lt;/div&gt;" style="edgeLabel;html=1;align=center;verticalAlign=middle;resizable=0;points=[];" vertex="1" connectable="0" parent="sU1jEntOXJiRWSgL5Oum-7">
          <mxGeometry x="-0.0326" y="2" relative="1" as="geometry">
            <mxPoint x="9" y="-18" as="offset" />
          </mxGeometry>
        </mxCell>
        <mxCell id="sU1jEntOXJiRWSgL5Oum-9" value="" style="endArrow=classic;html=1;rounded=0;dashed=1;" edge="1" parent="1">
          <mxGeometry width="50" height="50" relative="1" as="geometry">
            <mxPoint x="569.8300000000003" y="350" as="sourcePoint" />
            <mxPoint x="339.9966666666667" y="350" as="targetPoint" />
            <Array as="points">
              <mxPoint x="450.33" y="350" />
            </Array>
          </mxGeometry>
        </mxCell>
        <mxCell id="sU1jEntOXJiRWSgL5Oum-10" value="Retorna Información del CRUD de Roles" style="edgeLabel;html=1;align=center;verticalAlign=middle;resizable=0;points=[];" vertex="1" connectable="0" parent="sU1jEntOXJiRWSgL5Oum-9">
          <mxGeometry x="0.2357" y="1" relative="1" as="geometry">
            <mxPoint x="42" y="-11" as="offset" />
          </mxGeometry>
        </mxCell>
      </root>
    </mxGraphModel>
  </diagram>
</mxfile>
